<?xml version="1.0" encoding="UTF-8"?>
<svg id="Layer_1" data-name="Layer 1" xmlns="http://www.w3.org/2000/svg" version="1.1" viewBox="0 0 792 792">
  <defs>
    <style>
      .cls-1 {
        fill: #fff;
        stroke-width: 0px;
      }
    </style>
  </defs>
  <path class="cls-1" d="M166.03,421.73c1.28,4.35.29,9.65-2.9,12.74-3.19,3.09-8.52,3.28-11.36-.01-2.79-3.25-2.02-9.29,1.64-11.43.06-.03.16-.32.16-.32-5.48-2.7-11.59,1.73-13.5,7.57-1.82,5.57-.35,11.81,2.6,16.4,10.79,16.74,36.91,12.02,46.84-4.46,10.12-16.8,2.36-37.77-13.93-46.66-13.49-7.35-30.18-7.96-45.07-6.15-21.27,2.59-45.16,10.78-66.61,20.38,3.57-14.4,12.53-51.48,14.09-59.35,1.73,7.71,8.87,36.25,10.74,43.37,11.84-4.08,21.9-6.65,30.15-8.26l-18.2-66.64c-14.88,10.76-33.33,11.09-47.7,12.37v1.09s6.04.5,9.62,5.25c3.08,4.09,2.58,9.51,1.58,14.07l-16.52,66.59c-5.58,3.09-10.71,5.38-17.2,5.59-7.88.26-10-8.58-5.26-12.6,3.27-2.77,8.68-2.31,12.14,1.65,3.03-6.52-8.93-17.1-19.68-13.31s-15.71,18.38-12.09,27.22c3.34,8.16,10.8,14.48,22.93,13.68,3.9-.26,10.27-2.5,15.1-5.87l-4.4,17.73c-3.23,13.02-8.99,20.94-13.36,23.94-4.37,3.01-8.3,4.49-8.3,4.49v2.43h47.82v-2.3c-12.52-3.95-15.2-15.76-11.53-30.59.33-1.32,3.03-12.31,6.18-25,2.55-1.11,6.02-2.37,6.02-2.37,6.16-2.24,12.93-4.48,19.92-6.72,14.73-4.56,29.71-7.91,44.58-9.55,11.88-1.31,31.41,1.23,35.48,15.04h.02Z"/>
  <path class="cls-1" d="M235.84,421.86v-.39c0-.42-.03-.83-.04-1.25v-.13c-.08-1.87-.23-3.76-.45-5.68h0c-.05-.46-.11-.9-.17-1.35-2.26-17.1-9.55-30.34-14.62-35.99-7.86-8.73-17.33-13.42-32.69-13.17-14.5.24-41.73.08-47.62.02v1.09s12.58,3.38,12.83,12.89c.02.96.05,2.84.07,5.41,9.56.92,18,3.36,25.18,7.27,1.19.65,2.34,1.36,3.45,2.11v-18.06c0-3.25,3.04-5.99,7.71-3.45,9.05,7.36,18.74,22.63,19.37,50.55,0,.61.02,1.21.02,1.81s0,1.2-.02,1.81c-.62,27.92-10.32,43.19-19.37,50.55-4.67,2.54-7.71-.19-7.71-3.45v-14.99c-5.71,3.38-12.32,5.31-19.03,5.31h0c-3.37,0-6.59-.51-9.59-1.46-.02,3.17-.05,5.47-.07,6.58-.07,2.93-.78,5.46-2.51,7.66-11.18-7.79-12.73-21.66-17.48-38.14l-6.69-24.51c-9.96,1.35-20.3,3.52-30.89,6.45,2.98,11.31,5.43,20.62,5.43,20.62.93,3.55,1.84,7.01,2.72,10.33,3.89,14.78.99,26.65-11.53,30.6v2.3s88.9-.12,95.75,0c15.37.25,24.83-4.44,32.69-13.17,5.08-5.65,12.36-18.89,14.62-35.99.06-.45.11-.9.17-1.34h0c.22-1.93.37-3.82.45-5.69v-.13c.02-.42.03-.84.04-1.25v-.39c0-.33,0-.67.02-1v-1.38c0-.33,0-.66-.02-1h-.02Z"/>
  <path class="cls-1" d="M518.61,348.47c-55.6-34.52-84.63,15.42-49.39,26.05-7.76-10.02,6.37-32.26,39.05-14.06v79.41c.11,19.3-9.85,18.44-11.05,18.5v1.1c18.97,5.47,35.05,14.02,50.52,22.84v-1.55c-3.27-2.25-11.51-7.86-11.05-22.5v-83.55c23.57,7.18,49.39,3.93,51.06-21.92-18.35,23.78-47.47,9.13-69.13-4.32h-.01Z"/>
  <path class="cls-1" d="M720.63,486.57h0c-.66-1.06-1.29-2.15-1.87-3.25-1.18-2.18-2.19-4.35-2.97-6.49-2.01-5.05-3.46-10.03-4.75-13.81-7.42-21.65-17.63-30.31-26.3-33.77h0c7.01-1.44,23.85-7.47,23.85-32.17,0-31.2-27.17-33.04-36.62-33.04l-67.29-.14v1.09c3.92,1.05,9.34,4.61,9.34,11.41,0,8.04.07,64.6.07,64.6,0,21.61-4.66,29.56-19.83,29.56-19.08,0-18.03-19.44-18.03-30.02v-61.15c-5.24,2.53-11.59,3.88-18.86,3.88h0c-2.69,0-5.46-.19-8.28-.54.05,20.31.06,60.92.06,60.95,0,7.71-.4,15.58,2.15,22.96,1.87,5.41,5.12,10,10.39,13.45l.45.31c13.8,9.65,39.95,7.37,45.16,4.83.68-.22,1.27-.47,1.83-.72.43-.18.83-.36,1.19-.55,5.81-3.07,10.1-8.12,12.47-14.22,2.62-6.73,2.93-22.95,2.92-30.09,0,0,.01-57.22.03-63.25,0-2.97,1.62-5.59,3.73-7.59h.09c6.04,1.39,6.67,10.43,6.67,17.38l.11,71.39c0,4.26.02,9.18.04,13.58l-.02-.09c-.16,16.11.55,33.73-8.52,40.55-2.18,1.64-5.36,3.22-9.24,2.31-10.97-2.58-11.18-17.27-1.13-20.62-18.3-5.77-29.64,9.11-22.47,20.02-2.43-.77-4.96-1.65-7.62-2.7-32.98-14.95-71.63-47.62-116.92-50.14-32.61-1.82-63.52,13.61-59.35,44.85,3.93,29.72,54.84,30.39,43.89-5.71-.16,11.97-21.76,15.14-19.89-2.48,2.41-22.77,52.65-20.99,71.49-11.75-34.27,5.06-10.87,51.7,13.06,28.42-22.88-5.41-4.96-28.11,19.88-17.44,22.65,9.73,31.88,14.72,45.24,21.25,15.81,7.73,79.03,27.46,79.03-38.37v-.17h0l-.04-45.56c1.68-.09,5,.63,9.29,6.12.07.09.14.19.21.29,3,4.87,4.64,10.94,6.43,16.15,1.28,3.74,2.61,7.46,3.96,11.17.06.18.11.37.17.54.06.19.17.38.24.58.75,2.05,1.49,4.09,2.26,6.13,1.94,5.12,12.63,36.26,51.49,31.66,6.37-.75,16.54-5.18,20.26-11.31-5.47,2.74-12.13,4.01-17.54,4.01-9.32,0-15.51-5.39-19.86-12.29h-.05ZM683.5,400.6c0,24.35-14.31,26.4-17.23,24.7-2.21-1.28-2.54-4.65-2.54-8.78v-35.85c0-4.13.33-7.5,2.54-8.78,2.92-1.7,17.23.36,17.23,24.7v4.01h0Z"/>
  <path class="cls-1" d="M450.51,307.65c1.5.49,3.57.27,4.15-1.14,2.33-7.57,2.02-16.37,2.33-24.84,0-.8.5-2.33.99-1.65,3.58,6.82,7.21,12.91,11.13,19.25,2,3.21,3.77,6.29,7.49,6.08,3.66-.49,6.64-3.29,8.3-6.25,4.17-11.84,1.5-25.66-4.48-35.54-2.16-3.28-4.66-7.56-8.64-8.55-1.81-.24-1.61,2.23-1.18,3.62,2.17,9.04,5.49,17.77,6.33,27.31.16,1.97.82,4.6-.51,6.26-7.14-8.71-11.32-19.08-19.94-26.66-1.36-1.11-3.03.02-3.82,1.5-3.99,8.05-5.53,16.93-6.14,26.32-.33,5.01-1.34,11.68,3.98,14.31v-.02Z"/>
  <path class="cls-1" d="M397.34,278.87c.46,1.61,2.32,3.3,3.99,3.78,11.12,2.47,25.42-.48,34.88,6.92,1.17,1.47.12,3.04-1.32,3.78-8.79,3.62-18.13,6.19-28.44,4.05-1.39-.36-3.46-1.81-2.79-3.23,4.14-6.25,11.13-.16,16.28.66,2.57.55,8.31-.16,11.13-3.12.89-1.67-2.23-2.7-4.32-3.29-7.32-1.97-17.61-4.28-24.42.33-1.94,1.29-3.49,5.26-2.17,8.39,5.65,9.05,16.49,12.09,26.59,10.53,6.87-1.06,15.12-3.45,16.78-11.18.79-4.89.5-10.2-3.66-13.66-9.63-6.41-23.45-2.96-34.06-7.23-.34-.49-.12-.66.5-.98,11.3-3.46,24.6-2.14,36.23-4.93,1.67-.51,3.25-3.17,2.5-4.44-1.67-1.66-3.83-1.93-6.15-2.31-14.08-2.36-29.93-1.64-40.05,8.07-1.78,1.89-1.67,5.43-1.5,7.9v-.04Z"/>
  <path class="cls-1" d="M489.4,300.26c1.25,4.48,3.43,9.31,6.66,10.04,10.3,1.97,18.78-3.78,26.57-9.55,1.35-1.36-1.23-5.48-2.15-5.6-6.98-.83-13.47,2.14-20.44,1.98.67-3.29,1.51-6.11,3.18-8.91,5.69-.83,14.17.35,17.58-2.29,1-1.14.59-4.75-.32-5.26-4.33-1.48-9.99-.92-14.33-.68.69-2.2,1.42-4.66,2.2-6.89,3.65.33,7.31.1,10.63-.18,3.55-.28,7.82.33,10.3-2.46.73-1.41-2.07-5.23-3.65-6.41-1.58-1.19-2.26-1.7-3.16-1.82-6.61-.92-20.62,1.82-30.41,3.29-1.33.16-1,1.32-.67,2.31.83,3.95,5.15,3.29,7.97,4.78-1.16,2.63-1.81,5.42-3.49,7.89-1.48.5-3.99.16-4.15,2.47-.15,1.4.99,2.32.88,4.17-1.55,3.91-4.23,8.02-3.21,13.11h.01Z"/>
  <path class="cls-1" d="M386.87,262.74c-1.85-.16-2.48,2.62-2.82,3.95-1.5,9.87-2.12,20.9-1.83,31.6.12,3.99-.49,9.37,4.49,10.36,1.99.49,5.7,0,5.99-1.32.99-12.5-.35-26.49-1.33-39.32-.1-1.32-1.84-4.61-4.49-5.27h-.01Z"/>
  <path class="cls-1" d="M250.26,227.37c.83-.49,2.32-.49,2.49-1.64-1.16-2.47-4.48-1.64-6.31-2.96,1-.99,2.5-.66,3.66-1.32,32.9-4.76,65.3,5.3,91.07,23.7,13.63,9.73,26.6,24.18,22.11,41.61-5.88,16.85-28.92,19.44-46.87,19.26-3.99-.05-7.42-.67-10.97-1.98.12-10.51-.09-23.56-.28-30.27,7.4-.43,21.71,1.81,31.19,5.92,1.83,1.18-3.49,4.76-5.49,6.59-1.1,1.29,2.95,2.52,5.65,2.3,4.15-.67,7.65-3.95,9.31-7.74,1.16-3.61-.59-6.44-2.84-8.88-10.13-8.56-24.07-8.52-37.7-8.84-.15-4.75-.25-11.84-1.16-16.11-.91-4.25-3.01-6.14-6.16-6.8-2.5,2.8-2.9,6.43-3.33,10.2-.53,4.6-1.02,9.6-1.49,13.82,0,0-7.42,1.44-11.8,2.46-4.38,1.03-21.58,6.49-20.11,15.14,1.95,7.69,14.29,16.96,22.77,22.38,2.76,1.76,5.57,3.31,8.65,4.76.35,3.99.99,7.89,3.65,11.03.86.78,3.86.47,6.16,0,2.82-1.15,2.9-4.16,3.16-6.42,2.97.52,6.5,1.34,11.65,1.98,20.61,2.54,45.84-3.29,57.15-23.69,9.47-19.58-6.98-38.56-19.32-49.14-1.73-1.47-7.86-6.42-11.1-8.45-26.98-16.78-61.82-28.62-95.73-18.92-4.32,1.48-6.32,5.93-6.98,9.87,2.17,2.63,5.49,2.14,8.98,2.14h0ZM292.3,300.09c-10.01-2.96-20.6-8.55-27.59-17.76-1.64-2.57,4.49-4.12,7.48-4.95,6.6-1.82,13.63-2.63,20.78-2.96-.6,9.13-.73,19.27-.67,25.67Z"/>
  <path class="cls-1" d="M376.4,257.65c3.15,1.64,3.84-2.06,5.48-3.46,9.3,3.62,18.28-.65,25.26-6.08,5.49-4.6,12.14-10.21,9.48-17.77-1.51-2.96-4.66-4.78-7.81-4.78-3.16-4.11-8.14-5.42-13.14-4.76-10.14,1.81-21.27,7.9-24.58,18.26-.83,4.12.16,7.9,3.16,10.7-.34,2.54-.67,6.08,2.15,7.9h0ZM391.28,240.02c4.86-4.69,11.45-10.54,17.68-8.54.76.25,1.19.55,1.67,1.82,1.1,2.88-2.66,7.38-6.23,9.5-5.49,2.96-11.54,5.24-18.51,4.43.9-2.54,2.66-4.59,5.39-7.2h0ZM380.89,234.44c2.26-2.2,5.48-4.28,8.8-4.11-4.67,3.45-8.62,7.77-11.8,12.51-1.67-2.96,1-5.93,2.99-8.4h.01Z"/>
  <path class="cls-1" d="M531.78,300.58c-4.65,12.17-8.64,24.68-9.48,38.33.18,3.46,3,6.42,6,8.24.99.48,3.38,1.8,3.65.65,2.33-13.15,5.65-25.83,10.29-38.17,4.4.56,7.1.45,12.96-2.12,9.98-4.77,19.46-15.14,19.97-26.49.14-6.09-2.17-11.86-7.48-15.31-1.72-1.06-3.49-.55-5.16.17-10.31,5.93-22.74,19.65-25.6,25.65-.47-11.66,9.48-19.07,10.31-29.76.02-2.67-3.61.21-4.81,1.8-8.65,10.21-17.79,23.7-10.65,37.02h0ZM566.51,273.93c1.33-1.27,2.17,5.1,1.84,7.74-1.17,7.72-10.79,14.27-15.63,15.62-1.62.45-2.34.45-4.14.49,2.74-6.31,10.13-17.11,17.94-23.86h-.01Z"/>
  <path class="cls-1" d="M365.05,475.55c-2.26-1.03-2.6-3.71-2.6-7v-40.96c0-2.62.44-3.67,1.74-4.21,2.4-1.01,15.61,2.73,20.25,23.1h.75v-54.65h-.75c-4.64,20.38-17.84,24.11-20.25,23.1-1.3-.55-1.74-1.6-1.74-4.21v-32.12c0-3.29.36-5.92,2.6-7,3.88-1.86,24.28.71,35.16,28.64h.75v-36.36l-102.98.14v1.19c9.42,2.97,11.44,12.4,8.67,23.55-.62,2.48-17,69.24-18.17,75.16-1.3-5.81-18.62-72.66-19.28-75.16-2.92-11.12-.75-20.59,8.67-23.56v-1.2h-61.41v1.19c12.14,2.97,19.93,15.67,22.82,25.78l25.18,92.21c12.58-.03,30.61,0,30.61,0l23.33-94.42c3.53-12.26,5.98-17.39,10.22-20.36,3.5,2.61,5.62,6.35,5.77,12.85l.02,38.07v7.72l-.02,38.07c-.23,10.2-5.31,13.61-12.95,16.5v.88h.01v.69h80.71v-44.7h-.75c-10.81,29.62-31.29,39.37-36.37,37.05v.02Z"/>
  <path class="cls-1" d="M414.64,473.81c.28-.32.55-.65.84-.96,5.02-5.42,11.72-9.75,19.56-12.82l-.03-1.4c-9.47,1.59-7.8-16-7.79-22.63l-.11-33.92s16.49,29.22,30.13,52.94c4.37-.37,8.88-.45,13.49-.2,7.61.42,15.02,1.53,22.23,3.48-.01-27.22-.03-79.59-.03-82.48,0-6.34,2.13-8.96,6.61-10.79v-1.01l-24.9-.07-.02,1.09c3.92,1.05,7.19,4.02,7.19,9.87.02,8.04.04,48.54.04,48.54v9.66l-41.1-69.23h-37.09l-.03,1c3.17.58,11.02,2.16,11.04,16.93-.02,17.63-.03,91.99-.03,91.99h0Z"/>
  <path class="cls-1" d="M784.03,438.5c-10.81,29.62-31.29,39.37-36.37,37.05-2.26-1.03-2.6-3.71-2.6-7v-40.96c0-2.62.44-3.67,1.74-4.21,2.4-1.01,15.61,2.73,20.25,23.1h.75v-54.65h-.75c-4.64,20.38-17.84,24.11-20.25,23.1-1.3-.55-1.74-1.6-1.74-4.21v-32.12c0-3.29.36-5.92,2.6-7,3.88-1.86,24.28.71,35.16,28.64h.75v-36.36h-79.51v.88c7.82,2.95,12.97,11.57,12.97,22.33v76.01c.2.61.41,1.24.62,1.9.97,2.99,2.07,6.38,3.4,9.72l.06.15c.66,1.8,1.54,3.73,2.62,5.73.49.92.98,1.77,1.48,2.59h59.57v-44.7h-.75,0Z"/>
</svg>